<mxfile host="app.diagrams.net" agent="Mozilla/5.0 (X11; Linux x86_64; rv:143.0) Gecko/20100101 Firefox/143.0" version="28.2.5">
  <diagram name="Page-1" id="_5PVfZYp8u8z9RxWhbrD">
    <mxGraphModel dx="1143" dy="700" grid="1" gridSize="10" guides="1" tooltips="1" connect="1" arrows="1" fold="1" page="1" pageScale="1" pageWidth="850" pageHeight="1100" math="0" shadow="0">
      <root>
        <mxCell id="0" />
        <mxCell id="1" parent="0" />
        <mxCell id="DDyAvHpm-Jbbqg_1n6ZB-1" value="" style="swimlane;startSize=0;" vertex="1" parent="1">
          <mxGeometry x="330" y="390" width="130" height="120" as="geometry" />
        </mxCell>
        <mxCell id="DDyAvHpm-Jbbqg_1n6ZB-2" value="DB Server" style="rounded=0;whiteSpace=wrap;html=1;fillColor=#d5e8d4;strokeColor=#82b366;" vertex="1" parent="DDyAvHpm-Jbbqg_1n6ZB-1">
          <mxGeometry x="25" y="40" width="80" height="30" as="geometry" />
        </mxCell>
        <mxCell id="DDyAvHpm-Jbbqg_1n6ZB-5" value="&lt;div&gt;Internal Trusted Network&lt;/div&gt;" style="text;html=1;align=center;verticalAlign=middle;resizable=0;points=[];autosize=1;strokeColor=none;fillColor=none;" vertex="1" parent="1">
          <mxGeometry x="320" y="360" width="150" height="30" as="geometry" />
        </mxCell>
        <mxCell id="DDyAvHpm-Jbbqg_1n6ZB-20" style="edgeStyle=orthogonalEdgeStyle;rounded=0;orthogonalLoop=1;jettySize=auto;html=1;exitX=0.5;exitY=1;exitDx=0;exitDy=0;entryX=0;entryY=0.5;entryDx=0;entryDy=0;" edge="1" parent="1" source="DDyAvHpm-Jbbqg_1n6ZB-6" target="DDyAvHpm-Jbbqg_1n6ZB-1">
          <mxGeometry relative="1" as="geometry" />
        </mxCell>
        <mxCell id="DDyAvHpm-Jbbqg_1n6ZB-6" value="" style="swimlane;startSize=0;" vertex="1" parent="1">
          <mxGeometry x="150" y="260" width="130" height="120" as="geometry" />
        </mxCell>
        <mxCell id="DDyAvHpm-Jbbqg_1n6ZB-7" value="Webserver" style="rounded=0;whiteSpace=wrap;html=1;fillColor=#f8cecc;strokeColor=#b85450;" vertex="1" parent="DDyAvHpm-Jbbqg_1n6ZB-6">
          <mxGeometry x="25" y="22.5" width="80" height="30" as="geometry" />
        </mxCell>
        <mxCell id="DDyAvHpm-Jbbqg_1n6ZB-15" value="DNS Server" style="rounded=0;whiteSpace=wrap;html=1;" vertex="1" parent="DDyAvHpm-Jbbqg_1n6ZB-6">
          <mxGeometry x="25" y="67.5" width="80" height="30" as="geometry" />
        </mxCell>
        <mxCell id="DDyAvHpm-Jbbqg_1n6ZB-9" value="DMZ" style="text;html=1;align=center;verticalAlign=middle;resizable=0;points=[];autosize=1;strokeColor=none;fillColor=none;" vertex="1" parent="1">
          <mxGeometry x="190" y="230" width="50" height="30" as="geometry" />
        </mxCell>
        <mxCell id="DDyAvHpm-Jbbqg_1n6ZB-18" style="edgeStyle=orthogonalEdgeStyle;rounded=0;orthogonalLoop=1;jettySize=auto;html=1;exitX=0.5;exitY=1;exitDx=0;exitDy=0;entryX=1;entryY=0.5;entryDx=0;entryDy=0;" edge="1" parent="1" source="DDyAvHpm-Jbbqg_1n6ZB-10" target="DDyAvHpm-Jbbqg_1n6ZB-1">
          <mxGeometry relative="1" as="geometry" />
        </mxCell>
        <mxCell id="DDyAvHpm-Jbbqg_1n6ZB-10" value="" style="swimlane;startSize=0;" vertex="1" parent="1">
          <mxGeometry x="510" y="260" width="130" height="120" as="geometry" />
        </mxCell>
        <mxCell id="DDyAvHpm-Jbbqg_1n6ZB-11" value="Windows Workstation" style="rounded=0;whiteSpace=wrap;html=1;fillColor=#f8cecc;strokeColor=#b85450;" vertex="1" parent="DDyAvHpm-Jbbqg_1n6ZB-10">
          <mxGeometry x="25" y="20" width="80" height="30" as="geometry" />
        </mxCell>
        <mxCell id="DDyAvHpm-Jbbqg_1n6ZB-13" value="Mac Workstation" style="rounded=0;whiteSpace=wrap;html=1;fillColor=#f8cecc;strokeColor=#b85450;" vertex="1" parent="DDyAvHpm-Jbbqg_1n6ZB-10">
          <mxGeometry x="25" y="60" width="80" height="30" as="geometry" />
        </mxCell>
        <mxCell id="DDyAvHpm-Jbbqg_1n6ZB-12" value="Private Subnet" style="text;html=1;align=center;verticalAlign=middle;resizable=0;points=[];autosize=1;strokeColor=none;fillColor=none;" vertex="1" parent="1">
          <mxGeometry x="525" y="230" width="100" height="30" as="geometry" />
        </mxCell>
      </root>
    </mxGraphModel>
  </diagram>
</mxfile>
